<svg width="50" height="50" viewBox="0 0 50 50" fill="none" xmlns="http://www.w3.org/2000/svg">
<g clip-path="url(#clip0)">
<path d="M26.2363 23.7647C25.8545 23.3828 25.2363 23.3828 24.8545 23.7647C24.4736 24.1455 24.4736 24.7637 24.8545 25.1455C25.2363 25.5264 25.8545 25.5264 26.2363 25.1455C26.6172 24.7637 26.6172 24.1455 26.2363 23.7647Z" fill="#E6B31E"/>
<path d="M38.665 11.335C36.7568 9.42685 33.6677 9.42675 31.7594 11.335C29.8562 13.2382 29.8561 16.3358 31.7597 18.2406C33.6636 20.1433 36.7613 20.1441 38.665 18.2404C40.573 16.3324 40.5734 13.2432 38.665 11.335ZM37.2839 16.8593C36.142 18.0012 34.2833 18.0012 33.1408 16.8595C31.9987 15.7167 31.9986 13.8579 33.1406 12.716C34.2854 11.5712 36.1389 11.571 37.2839 12.716C38.4288 13.8607 38.429 15.7143 37.2839 16.8593Z" fill="#E6B31E"/>
<path d="M49.7135 0.286014C49.5217 0.0943148 49.26 -0.00959124 48.9879 0.000662645C48.7671 0.00857279 43.5098 0.219901 37.2603 2.42878C32.2525 4.19694 28.0784 6.72848 24.8539 9.95309C24.1313 10.6756 23.4282 11.4419 22.7554 12.2378C19.5672 10.3611 17.0123 10.9496 15.3972 11.8139C11.6783 13.8042 9.37646 19.208 9.37646 23.0733C9.37676 23.4682 9.61475 23.8243 9.97959 23.9754C10.1004 24.0255 10.2273 24.0498 10.3531 24.0498C10.6073 24.0498 10.857 23.9505 11.0438 23.7638C13.0051 21.8026 15.4241 21.9252 16.2143 22.0291L16.5563 22.3711C15.8833 23.9727 15.3411 25.5653 14.9434 27.1142C14.7999 27.6747 14.8483 28.2679 15.0617 28.8105C14.1215 29.2438 13.2143 29.88 12.4245 30.6698C9.91074 33.1837 9.40029 39.3101 9.37979 39.5696C9.35732 39.8545 9.46064 40.135 9.66269 40.337C9.84658 40.5208 10.0953 40.623 10.3531 40.623C10.3787 40.623 10.4044 40.6221 10.4301 40.62C10.6896 40.5996 16.8162 40.0892 19.33 37.5754C20.1195 36.7858 20.7556 35.8788 21.1889 34.9388C21.7634 35.1647 22.3546 35.1925 22.8862 35.0563C24.4344 34.6587 26.0268 34.1167 27.6286 33.4436L27.9706 33.7856C28.0744 34.5759 28.197 36.9949 26.2359 38.956C25.9567 39.2353 25.8731 39.6553 26.0243 40.0201C26.1754 40.3851 26.5314 40.6229 26.9264 40.6229C30.7917 40.6229 36.1955 38.3211 38.1857 34.6023C39.05 32.9873 39.6385 30.4324 37.7618 27.2441C38.5574 26.5716 39.3237 25.8685 40.0465 25.1456C43.2711 21.921 45.8026 17.7469 47.5707 12.7395C49.7797 6.48971 49.9909 1.2323 49.9988 1.0116C50.0086 0.740603 49.9052 0.47781 49.7135 0.286014ZM11.5599 20.9728C12.1665 18.037 13.9285 14.8154 16.3191 13.5359C17.9167 12.681 19.6629 12.7648 21.5195 13.7811C19.9378 15.8614 18.5627 18.1026 17.4165 20.4693C17.4019 20.4603 17.2262 20.2393 16.8996 20.1657C16.7653 20.1353 14.1814 19.5795 11.5599 20.9728ZM17.9489 36.1942C16.6061 37.537 13.4562 38.2452 11.4653 38.5344C11.7546 36.5434 12.4629 33.3936 13.8056 32.0509C14.5575 31.2989 15.4294 30.7288 16.3057 30.4077L19.5921 33.6941C19.271 34.5704 18.701 35.4423 17.9489 36.1942ZM22.401 33.1643C22.1184 33.2366 21.7911 33.1304 21.5477 32.8874C20.2844 31.624 19.7901 31.1298 19.635 30.9748C19.3507 30.6904 18.6533 29.9931 17.113 28.4527C16.8694 28.2086 16.7632 27.8814 16.8353 27.5992C17.1481 26.3811 17.5572 25.1313 18.0547 23.8695L26.1303 31.9451C24.8683 32.4427 23.6187 32.8517 22.401 33.1643ZM36.4639 33.6807C35.1844 36.0712 31.9629 37.8333 29.0272 38.4398C29.9632 36.6784 30.1696 34.4361 29.8276 33.0765C29.7482 32.7607 29.5421 32.6019 29.5306 32.5832C31.8971 31.437 34.1382 30.0619 36.2187 28.4802C37.235 30.337 37.3187 32.0834 36.4639 33.6807ZM38.6657 23.7646C37.7857 24.6445 36.8381 25.4946 35.8493 26.2911C33.4721 28.2052 30.8557 29.8265 28.0643 31.1171L18.8827 21.9357C20.1733 19.1441 21.7946 16.5277 23.7085 14.1508C24.5057 13.1613 25.3557 12.2136 26.2353 11.3341C29.1284 8.44098 32.8622 6.13844 37.336 4.48103L45.5188 12.6638C43.8616 17.1375 41.559 20.8713 38.6657 23.7646ZM46.2214 10.6042L39.3956 3.77839C43.1145 2.62331 46.3497 2.1908 47.9646 2.03533C47.809 3.65046 47.3764 6.88571 46.2214 10.6042Z" fill="#E6B31E"/>
<path d="M23.4737 40.3368C23.0921 39.9554 22.4738 39.9556 22.0925 40.3369L19.3308 43.0996C18.9495 43.4811 18.9496 44.0994 19.331 44.4807C19.7125 44.8619 20.3309 44.8619 20.7121 44.4805L23.4739 41.7178C23.8551 41.3364 23.855 40.718 23.4737 40.3368Z" fill="#E6B31E"/>
<path d="M9.6633 26.5264C9.28205 26.145 8.66379 26.145 8.28225 26.5262L5.51956 29.2879C5.13811 29.6692 5.13801 30.2875 5.51926 30.669C5.90041 31.0502 6.51868 31.0506 6.90032 30.6692L9.66301 27.9075C10.0445 27.5262 10.0446 26.9078 9.6633 26.5264Z" fill="#E6B31E"/>
<path d="M16.5685 41.7187C16.1873 41.3374 15.5689 41.3374 15.1874 41.7186L8.57223 48.3328C8.19078 48.7142 8.19078 49.3326 8.57213 49.7139C8.95328 50.0952 9.57174 50.0954 9.95318 49.714L16.5684 43.0998C16.9498 42.7184 16.9498 42.1 16.5685 41.7187Z" fill="#E6B31E"/>
<path d="M8.756 41.7187C8.37475 41.3374 7.7563 41.3374 7.37495 41.7186L0.759728 48.3328C0.378284 48.7142 0.378284 49.3326 0.759631 49.7139C1.14078 50.0952 1.75924 50.0954 2.14068 49.714L8.7559 43.0998C9.13735 42.7184 9.13735 42.1 8.756 41.7187Z" fill="#E6B31E"/>
<path d="M8.2813 33.4314C7.90005 33.0501 7.28159 33.0501 6.90024 33.4315L0.285998 40.0467C-0.0953489 40.4281 -0.0953489 41.0464 0.286096 41.4278C0.667443 41.8092 1.2858 41.8092 1.66715 41.4277L8.28139 34.8125C8.66274 34.4311 8.66274 33.8128 8.2813 33.4314Z" fill="#E6B31E"/>
<path d="M30.3791 19.621C29.9976 19.2396 29.3795 19.2396 28.9979 19.621L27.6171 21.0018C27.2357 21.3832 27.2357 22.0015 27.6171 22.383C27.9985 22.7643 28.6168 22.7643 28.9982 22.383L30.3791 21.0021C30.7604 20.6208 30.7604 20.0024 30.3791 19.621Z" fill="#E6B31E"/>
</g>
<defs>
<clipPath id="clip0">
<rect width="50" height="50" fill="white"/>
</clipPath>
</defs>
</svg>
