<svg width="50" height="50" viewBox="0 0 50 50" fill="none" xmlns="http://www.w3.org/2000/svg">
<g clip-path="url(#clip0)">
<path d="M44.3609 25.2548L38.9211 16.8545C38.4995 16.2034 37.7847 15.8146 37.009 15.8146H13.0083C12.2338 15.8146 11.5197 16.2024 11.0979 16.8518L5.64124 25.2532C5.08362 26.1116 5.16975 27.245 5.85071 28.0093L23.2982 47.5972C23.73 48.0819 24.3499 48.36 24.9991 48.36C24.9992 48.36 24.9991 48.36 24.9992 48.36C25.6484 48.36 26.2685 48.082 26.7003 47.5972L44.1497 28.0082C44.8297 27.2448 44.9165 26.1126 44.3609 25.2548ZM35.9071 17.7677L31.3322 24.8419L26.7547 17.7677H35.9071ZM29.5374 25.6634H20.4609L24.9991 18.6498L29.5374 25.6634ZM23.2436 17.7679L18.6786 24.8226L14.1153 17.7679H23.2436V17.7679ZM12.3095 18.5721L16.8964 25.6634H7.70374L12.3095 18.5721ZM8.11624 27.6165H17.9448L23.1417 44.4851L8.11624 27.6165ZM24.9991 43.8805L19.9885 27.6165H30.0098L24.9991 43.8805ZM26.8565 44.4857L32.0535 27.6166H41.883L26.8565 44.4857ZM33.1271 25.6634L37.7098 18.5769L42.2986 25.6634H33.1271Z" fill="#E6B31E"/>
<path d="M2.96221 25.6634H0.976562C0.437305 25.6634 0 26.1006 0 26.6399C0 27.1793 0.437305 27.6165 0.976562 27.6165H2.96221C3.50146 27.6165 3.93877 27.1793 3.93877 26.6399C3.93877 26.1006 3.50146 25.6634 2.96221 25.6634Z" fill="#E6B31E"/>
<path d="M49.0232 25.6634H47.0376C46.4983 25.6634 46.061 26.1006 46.061 26.6399C46.061 27.1793 46.4983 27.6165 47.0376 27.6165H49.0232C49.5625 27.6165 49.9998 27.1793 49.9998 26.6399C49.9998 26.1006 49.5625 25.6634 49.0232 25.6634Z" fill="#E6B31E"/>
<path d="M42.6898 8.96738C42.3084 8.58603 41.6902 8.58603 41.3087 8.96738L38.0648 12.2112C37.6835 12.5926 37.6835 13.2109 38.0648 13.5923C38.2556 13.783 38.5055 13.8783 38.7554 13.8783C39.0054 13.8783 39.2552 13.7829 39.446 13.5923L42.6898 10.3484C43.0712 9.96708 43.0712 9.34882 42.6898 8.96738Z" fill="#E6B31E"/>
<path d="M11.9773 12.1939L8.73357 8.94992C8.35232 8.56857 7.73416 8.56857 7.35242 8.94992C6.97107 9.33127 6.97107 9.94963 7.35242 10.331L10.5963 13.5748C10.787 13.7655 11.0369 13.8609 11.2868 13.8609C11.5367 13.8609 11.7866 13.7655 11.9773 13.5748C12.3587 13.1936 12.3587 12.5751 11.9773 12.1939Z" fill="#E6B31E"/>
<path d="M25.0249 1.63995C24.4856 1.63995 24.0483 2.07716 24.0483 2.61652V8.98058C24.0483 9.51993 24.4855 9.95714 25.0249 9.95714C25.5642 9.95714 26.0015 9.51993 26.0015 8.98058V2.61652C26.0015 2.07726 25.5642 1.63995 25.0249 1.63995Z" fill="#E6B31E"/>
<path d="M25.7147 11.5937C25.5332 11.4121 25.2813 11.3076 25.0244 11.3076C24.7676 11.3076 24.5156 11.4121 24.334 11.5937C24.1523 11.7754 24.0479 12.0273 24.0479 12.2842C24.0479 12.542 24.1522 12.793 24.334 12.9746C24.5156 13.1572 24.7676 13.2607 25.0244 13.2607C25.2813 13.2607 25.5332 13.1572 25.7147 12.9746C25.8974 12.793 26.001 12.541 26.001 12.2842C26.001 12.0273 25.8974 11.7755 25.7147 11.5937Z" fill="#E6B31E"/>
</g>
<defs>
<clipPath id="clip0">
<rect width="50" height="50" fill="white"/>
</clipPath>
</defs>
</svg>
