<svg width="50" height="50" viewBox="0 0 50 50" fill="none" xmlns="http://www.w3.org/2000/svg">
<path d="M10.9414 23.8379C9.32312 23.8379 7.74118 24.3178 6.39564 25.2169C5.05009 26.116 4.00137 27.3939 3.38209 28.889C2.76281 30.3841 2.60079 32.0293 2.91651 33.6165C3.23224 35.2036 4.01153 36.6616 5.15583 37.8059C6.30014 38.9502 7.75808 39.7294 9.34527 40.0451C10.9325 40.3608 12.5776 40.1988 14.0727 39.5795C15.5678 38.9602 16.8457 37.9115 17.7448 36.5659C18.6439 35.2204 19.1237 33.6384 19.1237 32.0201C19.1213 29.8508 18.2584 27.771 16.7245 26.2371C15.1905 24.7031 13.1107 23.8403 10.9414 23.8379V23.8379ZM10.9414 39.0305C9.5549 39.0304 8.19953 38.6193 7.04669 37.849C5.89386 37.0786 4.99534 35.9838 4.46476 34.7028C3.93418 33.4218 3.79536 32.0123 4.06587 30.6524C4.33638 29.2925 5.00406 28.0434 5.98448 27.063C6.96489 26.0826 8.21402 25.4149 9.57389 25.1445C10.9338 24.874 12.3433 25.0128 13.6243 25.5434C14.9052 26.074 16.0001 26.9725 16.7704 28.1254C17.5407 29.2782 17.9519 30.6336 17.9519 32.0201C17.9498 33.8788 17.2105 35.6607 15.8962 36.9749C14.582 38.2892 12.8 39.0284 10.9414 39.0305Z" fill="#E6B31E"/>
<path d="M28.8154 31.6772H21.1846C21.0292 31.6772 20.8801 31.739 20.7703 31.8489C20.6604 31.9587 20.5986 32.1078 20.5986 32.2632V34.4377C20.5986 34.5931 20.6604 34.7421 20.7703 34.852C20.8801 34.9619 21.0292 35.0236 21.1846 35.0236H28.8154C28.9708 35.0236 29.1199 34.9619 29.2298 34.852C29.3396 34.7421 29.4014 34.5931 29.4014 34.4377V32.2632C29.4014 32.1078 29.3396 31.9587 29.2298 31.8489C29.1199 31.739 28.9708 31.6772 28.8154 31.6772V31.6772ZM28.2295 33.8518H21.7705V32.8491H28.2295V33.8518Z" fill="#E6B31E"/>
<path d="M10.9414 26.3755C9.82502 26.3755 8.73371 26.7065 7.80547 27.3268C6.87724 27.947 6.15376 28.8286 5.72654 29.86C5.29932 30.8914 5.18754 32.0263 5.40534 33.1212C5.62313 34.2162 6.16072 35.2219 6.95012 36.0113C7.73952 36.8007 8.74528 37.3383 9.84021 37.5561C10.9351 37.7739 12.0701 37.6621 13.1015 37.2349C14.1329 36.8077 15.0144 36.0842 15.6347 35.156C16.2549 34.2277 16.5859 33.1364 16.5859 32.02C16.5842 30.5235 15.989 29.0888 14.9308 28.0306C13.8726 26.9725 12.4379 26.3772 10.9414 26.3755V26.3755ZM10.9414 36.4927C10.0568 36.4927 9.19206 36.2304 8.45653 35.7389C7.72101 35.2474 7.14774 34.5489 6.80921 33.7316C6.47069 32.9144 6.38211 32.0151 6.55469 31.1475C6.72727 30.2798 7.15325 29.4829 7.77876 28.8574C8.40427 28.2319 9.20122 27.8059 10.0688 27.6333C10.9364 27.4607 11.8357 27.5493 12.653 27.8878C13.4703 28.2264 14.1688 28.7996 14.6603 29.5351C15.1517 30.2707 15.4141 31.1354 15.4141 32.02C15.4127 33.2059 14.9411 34.3428 14.1026 35.1813C13.2641 36.0198 12.1272 36.4915 10.9414 36.4929V36.4927Z" fill="#E6B31E"/>
<path d="M38.9937 23.8379C37.3754 23.8379 35.7934 24.3178 34.4479 25.2169C33.1023 26.116 32.0536 27.3939 31.4343 28.889C30.8151 30.3841 30.653 32.0293 30.9688 33.6165C31.2845 35.2036 32.0638 36.6616 33.2081 37.8059C34.3524 38.9502 35.8103 39.7294 37.3975 40.0451C38.9847 40.3608 40.6299 40.1988 42.125 39.5795C43.6201 38.9602 44.898 37.9115 45.797 36.5659C46.6961 35.2204 47.176 33.6384 47.176 32.0201C47.1735 29.8508 46.3107 27.771 44.7767 26.2371C43.2428 24.7031 41.163 23.8403 38.9937 23.8379V23.8379ZM38.9937 39.0305C37.6072 39.0304 36.2518 38.6193 35.0989 37.849C33.9461 37.0786 33.0476 35.9838 32.517 34.7028C31.9864 33.4218 31.8476 32.0123 32.1181 30.6524C32.3886 29.2925 33.0563 28.0434 34.0367 27.063C35.0171 26.0826 36.2663 25.4149 37.6261 25.1445C38.986 24.874 40.3956 25.0128 41.6765 25.5434C42.9575 26.074 44.0524 26.9725 44.8227 28.1254C45.593 29.2782 46.0041 30.6336 46.0041 32.0201C46.002 33.8788 45.2628 35.6607 43.9485 36.9749C42.6342 38.2892 40.8523 39.0284 38.9937 39.0305V39.0305Z" fill="#E6B31E"/>
<path d="M38.9937 26.3755C37.8773 26.3755 36.786 26.7065 35.8577 27.3268C34.9295 27.947 34.206 28.8286 33.7788 29.86C33.3516 30.8914 33.2398 32.0263 33.4576 33.1212C33.6754 34.2162 34.213 35.2219 35.0024 36.0113C35.7918 36.8007 36.7975 37.3383 37.8925 37.5561C38.9874 37.7739 40.1223 37.6621 41.1537 37.2349C42.1851 36.8077 43.0667 36.0842 43.6869 35.156C44.3071 34.2277 44.6382 33.1364 44.6382 32.02C44.6365 30.5235 44.0412 29.0888 42.983 28.0306C41.9249 26.9725 40.4902 26.3772 38.9937 26.3755V26.3755ZM38.9937 36.4927C38.109 36.4927 37.2443 36.2304 36.5088 35.7389C35.7733 35.2474 35.2 34.5489 34.8615 33.7316C34.5229 32.9144 34.4344 32.0151 34.6069 31.1475C34.7795 30.2798 35.2055 29.4829 35.831 28.8574C36.4565 28.2319 37.2535 27.8059 38.1211 27.6333C38.9887 27.4607 39.888 27.5493 40.7053 27.8878C41.5225 28.2264 42.2211 28.7996 42.7125 29.5351C43.204 30.2707 43.4663 31.1354 43.4663 32.02C43.465 33.2059 42.9934 34.3428 42.1549 35.1813C41.3164 36.0198 40.1795 36.4915 38.9937 36.4929V36.4927Z" fill="#E6B31E"/>
<path d="M12.6942 11.9601C12.7641 11.9924 12.8396 12.0106 12.9165 12.0137C12.9935 12.0168 13.0702 12.0047 13.1424 11.9781C13.2147 11.9515 13.2809 11.9109 13.3374 11.8586C13.3939 11.8063 13.4396 11.7435 13.4718 11.6735L13.7062 11.1657C13.7384 11.0958 13.7565 11.0203 13.7596 10.9434C13.7626 10.8665 13.7505 10.7897 13.7238 10.7175C13.6972 10.6453 13.6566 10.579 13.6044 10.5225C13.5521 10.466 13.4893 10.4203 13.4194 10.388C13.3495 10.3558 13.2739 10.3377 13.197 10.3346C13.1201 10.3316 13.0434 10.3437 12.9712 10.3704C12.8989 10.397 12.8327 10.4376 12.7761 10.4898C12.7196 10.5421 12.6739 10.6049 12.6417 10.6748L12.4073 11.1826C12.3751 11.2525 12.357 11.3281 12.354 11.4049C12.351 11.4818 12.3631 11.5586 12.3898 11.6308C12.4164 11.703 12.457 11.7692 12.5092 11.8257C12.5615 11.8822 12.6244 11.9279 12.6942 11.9601V11.9601Z" fill="#E6B31E"/>
<path d="M9.82367 18.1811C9.89353 18.2135 9.96907 18.2317 10.046 18.2348C10.1229 18.2379 10.1996 18.2258 10.2719 18.1991C10.3441 18.1725 10.4104 18.1319 10.4669 18.0797C10.5234 18.0274 10.569 17.9645 10.6012 17.8946L12.7985 13.1333C12.8307 13.0634 12.8489 12.9878 12.8519 12.9109C12.855 12.834 12.8428 12.7573 12.8162 12.685C12.7896 12.6128 12.749 12.5466 12.6967 12.49C12.6445 12.4335 12.5817 12.3878 12.5118 12.3556C12.4419 12.3233 12.3663 12.3052 12.2894 12.3021C12.2125 12.2991 12.1357 12.3112 12.0635 12.3378C11.9913 12.3645 11.925 12.4051 11.8685 12.4573C11.812 12.5095 11.7663 12.5724 11.734 12.6423L9.53676 17.4036C9.50453 17.4735 9.48638 17.5491 9.48336 17.626C9.48034 17.7029 9.4925 17.7796 9.51914 17.8518C9.54579 17.924 9.58639 17.9903 9.63865 18.0468C9.6909 18.1033 9.75377 18.1489 9.82367 18.1811V18.1811Z" fill="#E6B31E"/>
<path d="M45.7811 24.2398L39.7012 11.0649C39.2175 10.0218 38.446 9.1384 37.4774 8.51864C36.5089 7.89887 35.3835 7.56849 34.2336 7.56631C33.4249 7.56633 32.6244 7.72927 31.8799 8.04541C31.1355 8.36155 30.4623 8.82442 29.9007 9.40638C29.339 9.98835 28.9004 10.6775 28.6109 11.4327C28.3214 12.1879 28.187 12.9937 28.2157 13.802L28.335 17.1613H21.6651L21.7844 13.802C21.8131 12.9937 21.6787 12.1879 21.3892 11.4327C21.0997 10.6775 20.6611 9.98835 20.0994 9.40638C19.5378 8.82442 18.8646 8.36155 18.1202 8.04541C17.3758 7.72927 16.5753 7.56633 15.7665 7.56631C14.6166 7.56849 13.4912 7.89887 12.5227 8.51864C11.5541 9.1384 10.7826 10.0218 10.2989 11.0649L4.20806 24.2631C4.03808 24.4115 3.87206 24.5656 3.71002 24.7256C2.74285 25.6816 1.97589 26.8208 1.45392 28.0765C0.931951 29.3323 0.665449 30.6795 0.669979 32.0394C0.669979 37.7708 5.32427 42.4337 11.0452 42.4337C12.8238 42.43 14.5721 41.9725 16.1246 41.1045C17.677 40.2365 18.9823 38.9867 19.9169 37.4733H30.0829C31.0175 38.9867 32.3228 40.2366 33.8753 41.1046C35.4279 41.9726 37.1762 42.4301 38.9549 42.4337C44.6758 42.4337 49.3301 37.7622 49.3301 32.0201C49.3347 30.6608 49.0681 29.3142 48.5459 28.0591C48.0237 26.804 47.2564 25.6658 46.2889 24.7108C46.1243 24.5475 45.955 24.3905 45.7811 24.2398V24.2398ZM30.744 10.2201C31.1949 9.74957 31.7368 9.37557 32.3367 9.12082C32.9365 8.86608 33.5819 8.7359 34.2336 8.73819C35.1598 8.73995 36.0661 9.00605 36.8462 9.5052C37.6263 10.0044 38.2476 10.7158 38.6373 11.556L43.9302 22.9556C43.012 22.4571 42.0233 22.1011 40.9981 21.8999L39.6033 18.8774C39.178 17.9562 38.5268 17.1573 37.7102 16.555C36.8936 15.9527 35.9381 15.5665 34.9323 15.4323C33.9265 15.2981 32.9032 15.4202 31.9572 15.7872C31.0112 16.1543 30.1733 16.7544 29.5213 17.5319L29.3873 13.7604C29.3618 13.1091 29.4689 12.4595 29.7021 11.8509C29.9353 11.2424 30.2898 10.6875 30.744 10.2201ZM39.6265 21.724C39.4038 21.7101 39.1798 21.7023 38.9545 21.7023C37.092 21.6967 35.2628 22.1961 33.6615 23.1475C32.0603 24.0988 30.7469 25.4664 29.861 27.1048L29.5973 19.6883C29.935 18.7939 30.5295 18.0192 31.306 17.4615C32.0826 16.9038 33.0067 16.5881 33.9621 16.554C34.9175 16.5198 35.8618 16.7688 36.6762 17.2696C37.4906 17.7703 38.1388 18.5006 38.5395 19.3687L39.6265 21.724ZM21.623 18.3327H28.3767L28.7722 29.4655H26.8944V22.444C26.8843 21.9484 26.6803 21.4764 26.3262 21.1294C25.9721 20.7823 25.4961 20.588 25.0003 20.588C24.5045 20.588 24.0284 20.7823 23.6743 21.1294C23.3202 21.4764 23.1162 21.9484 23.1061 22.444V29.4655H21.2275L21.623 18.3327ZM25.7221 22.444V29.4655H24.2772V22.444C24.2834 22.2566 24.3622 22.0789 24.4969 21.9485C24.6317 21.8181 24.8119 21.7451 24.9995 21.7451C25.187 21.7451 25.3672 21.8181 25.502 21.9485C25.6368 22.0789 25.7156 22.2566 25.7217 22.444H25.7221ZM11.3625 11.556C11.7521 10.7158 12.3735 10.0044 13.1535 9.5052C13.9336 9.00605 14.84 8.73995 15.7661 8.73819C16.4175 8.73821 17.0622 8.86945 17.6618 9.12407C18.2613 9.3787 18.8035 9.75148 19.2558 10.2202C19.7082 10.6889 20.0615 11.2439 20.2946 11.8522C20.5278 12.4604 20.6361 13.1094 20.6129 13.7604L20.479 17.5315C19.8269 16.7539 18.9889 16.1537 18.0428 15.7866C17.0968 15.4196 16.0733 15.2975 15.0674 15.4318C14.0616 15.5661 13.1059 15.9523 12.2893 16.5547C11.4726 17.1571 10.8214 17.9561 10.3962 18.8774L8.99625 21.911C7.96991 22.1133 6.98042 22.4709 6.06187 22.9715L11.3625 11.556ZM20.4023 19.6878L20.1386 27.1059C19.2521 25.4686 17.9382 24.1024 16.3369 23.1525C14.7356 22.2026 12.9066 21.7047 11.0448 21.7117C10.818 21.7117 10.5925 21.7196 10.3682 21.7338L11.4597 19.3685C11.8604 18.5004 12.5087 17.7702 13.323 17.2694C14.1374 16.7686 15.0816 16.5197 16.037 16.5538C16.9925 16.5879 17.9165 16.9036 18.6931 17.4612C19.4697 18.0188 20.0642 18.7934 20.4019 19.6878H20.4023ZM38.9549 41.2618C37.3246 41.2583 35.7239 40.8252 34.3142 40.0062C32.9045 39.1871 31.7355 38.011 30.9251 36.5964C30.8738 36.5068 30.7998 36.4323 30.7105 36.3805C30.6212 36.3288 30.5198 36.3015 30.4166 36.3015H19.5836C19.4803 36.3015 19.3789 36.3288 19.2896 36.3805C19.2004 36.4323 19.1263 36.5068 19.0751 36.5964C18.2645 38.0111 17.0955 39.1872 15.6857 40.0063C14.276 40.8253 12.6752 41.2584 11.0448 41.2618C5.97008 41.2618 1.84146 37.1246 1.84146 32.0394C1.83745 30.834 2.07369 29.6398 2.53639 28.5268C2.99909 27.4137 3.67896 26.404 4.53629 25.5566C5.71086 24.3913 7.17752 23.5637 8.7823 23.1607C10.3871 22.7577 12.0707 22.7942 13.6565 23.2665C15.2423 23.7387 16.6717 24.6291 17.7946 25.8443C18.9175 27.0596 19.6925 28.5547 20.0382 30.1728C20.0661 30.3041 20.1383 30.4219 20.2426 30.5064C20.3469 30.5909 20.4771 30.637 20.6114 30.637H29.3883C29.5226 30.637 29.6528 30.5909 29.7571 30.5064C29.8615 30.4219 29.9336 30.3041 29.9615 30.1728C30.3059 28.554 31.0799 27.0578 32.2021 25.8413C33.3243 24.6248 34.7534 23.7329 36.3392 23.2593C37.9251 22.7857 39.6092 22.7478 41.2147 23.1496C42.8202 23.5514 44.2879 24.3781 45.4637 25.5429C46.3209 26.3892 47.0007 27.3979 47.4633 28.5101C47.9259 29.6223 48.162 30.8156 48.1579 32.0201C48.1579 37.116 44.0293 41.2618 38.9549 41.2618V41.2618Z" fill="#E6B31E"/>
</svg>
